<mxfile host="app.diagrams.net" agent="Mozilla/5.0 (Windows NT 10.0; Win64; x64) AppleWebKit/537.36 (KHTML, like Gecko) Chrome/131.0.0.0 Safari/537.36" version="25.0.3">
  <diagram name="Страница — 1" id="qklkOkuoAnvWVwTNp957">
    <mxGraphModel dx="1737" dy="1857" grid="1" gridSize="10" guides="1" tooltips="1" connect="1" arrows="1" fold="1" page="1" pageScale="1" pageWidth="2339" pageHeight="3300" math="0" shadow="0">
      <root>
        <mxCell id="0" />
        <mxCell id="1" parent="0" />
        <mxCell id="WgEidqNkRZxl2zBPQQVa-8" value="&#xa;  &#xa;    &#xa;      &#xa;        &#xa;        &#xa;&#xa;        &#xa;        &#xa;          &#xa;        &#xa;&#xa;        &#xa;        &#xa;          &#xa;        &#xa;&#xa;        &#xa;        &#xa;          &#xa;        &#xa;&#xa;        &#xa;        &#xa;          &#xa;            &#xa;          &#xa;        &#xa;&#xa;        &#xa;        &#xa;          &#xa;            &#xa;          &#xa;        &#xa;&#xa;        &#xa;        &#xa;          &#xa;        &#xa;&#xa;        &#xa;        &#xa;          &#xa;            &#xa;          &#xa;        &#xa;&#xa;        &#xa;        &#xa;          &#xa;        &#xa;&#xa;        &#xa;        &#xa;          &#xa;        &#xa;      &#xa;    &#xa;  &#xa;" style="text;whiteSpace=wrap;html=1;" vertex="1" parent="1">
          <mxGeometry x="610" y="260" width="260" height="890" as="geometry" />
        </mxCell>
      </root>
    </mxGraphModel>
  </diagram>
</mxfile>
